<?xml version="1.0" encoding="utf-8"?>
<!-- Generator: Adobe Illustrator 20.0.0, SVG Export Plug-In . SVG Version: 6.00 Build 0)  -->
<svg version="1.1" id="Layer_1" xmlns="http://www.w3.org/2000/svg" xmlns:xlink="http://www.w3.org/1999/xlink" x="0px" y="0px"
	 viewBox="0 0 200 57.2" style="enable-background:new 0 0 200 57.2;" xml:space="preserve">
<style type="text/css">
	.st0{fill:#2E2A25;}
	.st1{fill:#40B4E5;}
</style>
<g>
	<path class="st0" d="M198,12.5c-0.3-0.5-0.9-0.7-1.5-0.7h-4.9c-0.7,0-1.2,0.5-1.7,1.1L175.8,30l-14.1-17.1c-0.5-0.6-1-1.1-1.7-1.1
		h-4.9c-0.7,0-1.2,0.3-1.5,0.7c-0.3,0.5-0.4,1.1,0,1.7L172,36.8v10.4c0,0.9,0.9,1.7,1.8,1.7h3.9c1,0,1.8-0.8,1.8-1.7V36.8L198,14.2
		C198.4,13.6,198.3,13,198,12.5"/>
	<path class="st0" d="M30.6,41.4H9.8V19.3h20.8c4.6,0,8.3,3.7,8.3,8.3V33C38.9,37.7,35.1,41.4,30.6,41.4 M30.6,11.8H4
		c-1,0-1.7,0.8-1.7,1.7v33.7c0,1,0.8,1.7,1.7,1.7h26.6c8.7,0,15.9-7.1,15.9-15.9v-5.4C46.4,18.9,39.3,11.8,30.6,11.8"/>
	<path class="st0" d="M89.1,19.3c0.9,0,1.7-0.9,1.7-1.8v-3.9c0-1-0.8-1.8-1.7-1.8H55.8c-0.9,0-1.7,0.9-1.7,1.8v3.9
		c0,1,0.8,1.8,1.7,1.8h12.8v22.1H55.8c-0.9,0-1.7,0.9-1.7,1.8v3.9c0,1,0.8,1.8,1.7,1.8h33.3c0.9,0,1.7-0.9,1.7-1.8v-3.9
		c0-1-0.8-1.8-1.7-1.8H76.2V19.3H89.1z"/>
	<path class="st1" d="M147.3,0.5c-0.3,0-0.9,0.1-1.4,0.7l-22.2,22.3L101.5,1.1c-0.5-0.5-1-0.7-1.4-0.7c-0.8,0-1.4,0.7-1.4,1.6v6.6
		c0,0.7,0.3,1.1,0.6,1.5c0.3,0.3,20.4,20.4,20.7,20.7c0.4,0.4,1.1,0.7,1.6,0.7h4.1c0.6,0,1.2-0.3,1.6-0.7
		c0.3-0.3,20.4-20.4,20.7-20.7c0.4-0.4,0.6-0.8,0.6-1.5V2.1C148.7,1.1,148.1,0.5,147.3,0.5"/>
	<path class="st1" d="M147.3,25.6c-0.3,0-0.9,0.1-1.4,0.6l-22.2,22.3l-22.2-22.3c-0.5-0.5-1-0.6-1.4-0.6c-0.8,0-1.4,0.7-1.4,1.6v6.6
		c0,0.7,0.3,1.1,0.6,1.5c0.3,0.3,20.4,20.4,20.7,20.7c0.4,0.4,1.1,0.7,1.6,0.7h4.1c0.6,0,1.2-0.3,1.6-0.7
		c0.3-0.3,20.4-20.4,20.7-20.7c0.4-0.4,0.6-0.8,0.6-1.5v-6.6C148.7,26.3,148.1,25.6,147.3,25.6"/>
</g>
</svg>
